<?xml version="1.0" standalone="no"?>
<!DOCTYPE svg PUBLIC "-//W3C//DTD SVG 20010904//EN"
 "http://www.w3.org/TR/2001/REC-SVG-20010904/DTD/svg10.dtd">
<svg version="1.0" xmlns="http://www.w3.org/2000/svg"
 width="1280.000000pt" height="720.000000pt" viewBox="0 0 1280.000000 720.000000"
 preserveAspectRatio="xMidYMid meet">

<g transform="translate(0.000000,720.000000) scale(0.100000,-0.100000)"
fill="#ED145B" stroke="none">
<path d="M2089 7083 c-27 -7 -42 -41 -250 -533 -39 -91 -84 -196 -101 -235
-17 -38 -39 -89 -49 -112 -29 -67 -55 -124 -77 -173 -11 -25 -102 -237 -202
-470 -100 -234 -188 -438 -195 -455 -8 -16 -28 -64 -45 -105 -36 -86 -37 -88
-85 -195 -20 -44 -56 -129 -81 -190 -25 -60 -49 -117 -53 -125 -10 -18 -177
-403 -261 -600 -34 -80 -84 -194 -110 -255 -27 -60 -83 -191 -125 -290 -42
-99 -85 -198 -95 -220 -67 -148 -71 -169 -44 -210 33 -50 62 -51 299 -10 44 7
121 19 170 25 50 7 173 29 275 51 190 40 244 46 255 29 3 -6 -1 -47 -9 -93 -8
-45 -24 -147 -36 -227 -11 -80 -27 -185 -35 -235 -8 -49 -33 -211 -55 -360
-39 -263 -60 -399 -100 -655 -11 -69 -33 -215 -50 -325 -16 -110 -39 -258 -50
-330 -63 -405 -80 -518 -80 -535 0 -24 37 -60 61 -60 21 0 74 73 94 131 8 22
24 57 34 77 11 21 38 79 61 130 22 51 72 161 111 244 104 224 139 299 139 303
0 2 27 60 60 129 33 70 60 129 60 131 0 3 22 53 50 111 27 58 50 107 50 109 0
2 22 51 50 109 28 58 50 108 50 110 0 2 25 57 55 121 30 63 55 118 55 120 0 2
24 55 53 117 30 62 73 156 97 208 24 52 60 131 81 175 20 44 85 186 144 315
107 234 235 514 302 659 67 147 81 177 131 286 27 61 63 139 80 175 16 36 42
91 56 123 58 128 79 174 102 223 30 65 31 104 2 131 -46 41 -62 45 -161 33
-51 -6 -105 -13 -122 -14 -16 -2 -91 -11 -165 -21 -74 -10 -148 -19 -165 -21
-16 -1 -88 -9 -160 -18 -71 -9 -143 -16 -159 -16 l-29 0 6 105 c4 57 16 186
27 287 11 101 22 210 25 243 6 75 22 239 35 370 16 166 41 416 46 475 7 84 33
344 54 550 11 102 22 214 25 250 3 36 10 106 15 155 6 50 12 125 13 168 2 72
0 80 -22 98 -13 10 -26 18 -30 18 -3 -1 -13 -3 -22 -6z m-73 -488 c4 -9 -1
-91 -10 -183 -9 -92 -19 -192 -21 -222 -3 -30 -9 -98 -15 -150 -5 -52 -16
-165 -25 -250 -8 -85 -19 -193 -25 -240 -5 -47 -12 -116 -15 -155 -6 -78 -23
-246 -59 -600 -48 -464 -48 -448 -1 -495 34 -34 38 -35 108 -34 39 1 99 4 132
8 33 4 76 9 95 11 19 3 73 9 120 16 47 6 101 12 120 14 62 7 113 13 204 24 49
7 91 12 95 13 61 7 64 -13 17 -114 -18 -40 -54 -118 -79 -173 -25 -55 -59
-131 -77 -170 -47 -101 -73 -159 -115 -250 -20 -44 -82 -178 -136 -298 -55
-120 -117 -256 -139 -303 -22 -46 -66 -144 -99 -217 -32 -73 -79 -175 -104
-227 -25 -52 -63 -135 -85 -185 -56 -126 -139 -309 -172 -380 -35 -74 -86
-185 -152 -330 -28 -60 -87 -191 -133 -290 -106 -231 -123 -269 -206 -452
-109 -242 -109 -243 -130 -243 -22 0 -34 37 -25 74 5 20 37 224 73 461 2 17
29 190 59 385 55 365 73 480 124 800 16 102 38 246 49 320 11 74 25 165 31
202 10 56 9 71 -4 96 -21 41 -63 72 -97 72 -38 0 -151 -17 -270 -42 -52 -10
-116 -21 -143 -23 -26 -3 -76 -12 -112 -20 -36 -8 -69 -13 -73 -11 -4 3 -56
-6 -115 -20 -113 -25 -171 -30 -180 -15 -3 5 19 67 50 137 31 71 96 221 144
334 48 113 134 311 190 440 56 129 112 260 125 290 12 30 38 91 57 135 19 44
59 134 87 200 29 66 58 134 66 150 7 17 34 77 58 135 88 205 170 396 209 485
22 50 48 110 58 135 10 25 86 203 169 395 84 193 191 440 238 550 78 183 101
225 125 225 5 0 11 -7 14 -15z"/>
<path d="M7405 5960 c-110 -20 -201 -65 -255 -127 -116 -132 -112 -323 10
-437 76 -71 138 -96 400 -161 206 -52 267 -83 306 -157 17 -32 18 -105 3 -145
-68 -182 -462 -207 -617 -39 -36 39 -63 94 -76 158 -6 27 -7 27 -74 22 -95 -8
-91 -4 -80 -71 38 -245 255 -386 573 -370 121 6 211 32 285 84 189 132 220
386 65 532 -73 69 -145 100 -360 154 -264 67 -309 86 -340 147 -19 37 -19 113
-1 149 45 86 143 125 301 119 90 -3 109 -7 161 -33 67 -35 120 -102 130 -166
4 -22 9 -41 13 -43 3 -2 40 0 81 3 l75 6 -4 40 c-5 66 -39 141 -88 195 -85 94
-194 139 -358 145 -55 2 -122 0 -150 -5z"/>
<path d="M3650 5300 l0 -651 83 3 82 3 3 292 2 293 303 2 302 3 3 73 3 72
-306 0 -305 0 0 205 0 205 350 0 350 0 0 75 0 75 -435 0 -435 0 0 -650z"/>
<path d="M5730 5300 l0 -650 80 0 80 0 0 650 0 650 -80 0 -80 0 0 -650z"/>
<path d="M6140 5948 c-1 -13 -2 -1276 -1 -1285 1 -9 23 -13 76 -13 l75 0 0
650 0 650 -75 0 c-41 0 -75 -1 -75 -2z"/>
<path d="M10690 5300 l0 -650 80 0 80 0 0 188 0 188 55 54 c35 35 58 51 63 44
4 -6 74 -115 156 -243 l149 -231 94 0 c51 0 93 2 93 5 0 3 -87 136 -194 296
l-194 290 177 174 176 174 -101 1 -101 0 -184 -192 -184 -191 -5 369 -5 369
-77 3 -78 3 0 -651z"/>
<path d="M8365 5866 l-70 -43 -3 -116 -3 -117 -54 0 -55 0 0 -60 0 -60 54 0
54 0 4 -347 c4 -392 6 -402 79 -450 43 -28 134 -41 214 -29 l47 8 -7 46 c-13
92 -14 94 -49 88 -39 -8 -94 8 -112 31 -11 14 -13 84 -14 336 l0 317 80 0 80
0 0 60 0 60 -80 0 -80 0 0 160 c0 88 -3 160 -7 160 -5 0 -39 -20 -78 -44z"/>
<path d="M9055 5604 c-60 -10 -154 -46 -194 -74 -42 -31 -81 -89 -105 -158
-18 -50 -20 -48 72 -60 l63 -9 21 49 c41 97 115 133 254 126 141 -7 204 -65
204 -187 l0 -48 -72 -17 c-40 -9 -134 -25 -208 -36 -74 -11 -155 -26 -180 -35
-120 -42 -193 -139 -192 -258 1 -111 54 -193 156 -239 43 -19 67 -23 161 -22
126 0 182 17 284 85 32 21 61 39 65 39 3 0 6 -10 6 -22 0 -12 5 -37 12 -55
l12 -33 78 0 c43 0 78 3 78 8 0 4 -8 27 -17 52 -14 37 -18 101 -24 370 -7 360
-10 381 -70 441 -56 56 -132 80 -264 84 -60 2 -123 1 -140 -1z m313 -572 c-8
-135 -48 -200 -158 -251 -73 -34 -196 -37 -249 -6 -76 45 -102 131 -59 195 33
49 95 76 233 99 66 11 140 27 165 35 76 24 73 26 68 -72z"/>
<path d="M10053 5600 c-202 -40 -322 -219 -323 -481 0 -178 41 -291 140 -382
73 -68 144 -97 256 -104 186 -12 335 83 395 253 20 58 23 80 12 87 -5 3 -38 8
-74 11 l-65 7 -17 -61 c-38 -135 -167 -200 -311 -158 -56 17 -128 90 -150 153
-24 67 -33 246 -16 326 30 139 116 220 241 227 55 3 77 0 114 -18 50 -24 103
-87 112 -133 3 -15 8 -29 12 -31 3 -2 38 2 76 8 66 12 70 14 67 37 -10 73 -73
163 -151 215 -71 46 -208 65 -318 44z"/>
<path d="M4723 5233 c6 -421 9 -439 87 -515 128 -123 372 -112 494 22 20 22
38 40 41 40 3 0 5 -29 5 -65 l0 -66 68 3 67 3 3 468 2 467 -79 0 -80 0 -3
-317 -3 -318 -30 -60 c-24 -49 -40 -66 -82 -91 -110 -65 -231 -51 -294 36 -32
43 -39 123 -39 441 l0 309 -81 0 -82 0 6 -357z"/>
<path d="M3850 3974 c0 -8 -29 -153 -64 -322 -191 -907 -416 -1983 -416 -1987
0 -3 400 -5 890 -5 l890 0 5 23 c24 104 45 209 45 222 0 13 -86 15 -736 15
-696 0 -735 1 -730 18 5 19 42 193 111 532 25 124 50 235 55 247 l10 23 667 2
667 3 22 101 c11 55 24 113 28 127 l6 27 -670 0 c-368 0 -670 3 -670 8 0 7
132 644 145 700 l5 22 688 0 689 0 22 108 c12 59 25 117 28 130 l5 22 -846 0
c-761 0 -846 -2 -846 -16z"/>
<path d="M5831 3303 c-197 -943 -266 -1270 -306 -1462 -19 -90 -35 -167 -35
-172 0 -6 61 -8 142 -7 l141 3 49 235 c27 129 69 330 93 445 24 116 87 417
140 670 171 820 196 940 201 958 5 16 -6 17 -138 17 l-144 0 -143 -687z"/>
<path d="M8673 3862 l-161 -97 -43 -207 -42 -207 -116 -3 -115 -3 -18 -84 c-9
-47 -19 -95 -23 -108 l-5 -23 115 0 c115 0 115 0 110 -22 -24 -104 -226 -1090
-235 -1150 -16 -100 -2 -165 48 -220 84 -93 224 -125 416 -97 l75 11 11 57 c7
31 18 84 25 119 12 58 11 63 -4 57 -9 -4 -52 -9 -97 -12 -101 -7 -148 7 -170
49 -24 46 -26 36 145 848 33 157 63 302 66 323 l7 37 143 0 142 0 22 100 c11
56 21 105 21 110 0 6 -57 10 -140 10 -77 0 -140 1 -140 3 0 1 29 137 64 302
35 165 63 301 62 302 -1 1 -75 -41 -163 -95z"/>
<path d="M7092 3380 c-340 -47 -605 -288 -730 -665 -45 -139 -57 -215 -57
-380 0 -115 4 -166 19 -220 28 -106 90 -225 152 -294 217 -239 649 -267 941
-62 136 96 284 276 327 398 l15 42 -32 5 c-50 8 -240 27 -242 24 0 -2 -21 -36
-44 -77 -85 -144 -228 -253 -380 -287 -94 -21 -166 -13 -248 26 -146 72 -223
223 -223 443 l0 97 624 0 624 0 7 23 c3 12 9 92 12 178 8 221 -18 341 -104
477 -81 129 -227 228 -383 261 -71 15 -209 20 -278 11z m243 -236 c98 -28 196
-125 230 -229 20 -62 39 -208 31 -241 l-6 -24 -476 0 -475 0 6 23 c4 12 21 55
38 96 123 299 386 451 652 375z"/>
<path d="M9921 3375 c-120 -34 -245 -133 -356 -283 -33 -45 -61 -79 -63 -78
-3 4 53 284 64 319 5 16 -4 17 -122 15 l-128 -3 -102 -490 c-57 -269 -124
-591 -150 -715 -26 -124 -59 -282 -74 -353 l-27 -128 136 3 136 3 81 385 c98
463 128 570 201 719 48 100 65 124 136 195 104 103 173 139 274 144 60 4 80 0
125 -21 l54 -24 57 130 c43 98 54 133 44 139 -25 16 -134 47 -182 52 -30 4
-72 0 -104 -9z"/>
<path d="M10920 3380 c-199 -20 -359 -95 -496 -234 -207 -210 -314 -490 -315
-826 -1 -232 47 -367 178 -504 175 -181 486 -244 763 -154 338 109 567 393
635 790 19 109 22 308 5 397 -55 299 -267 496 -573 531 -89 11 -87 11 -197 0z
m248 -242 c73 -27 161 -111 200 -190 43 -90 56 -166 49 -311 -13 -303 -154
-585 -358 -717 -92 -59 -147 -75 -264 -75 -87 0 -107 4 -157 27 -79 37 -120
70 -162 131 -80 116 -105 287 -72 488 43 258 145 449 303 568 140 105 311 135
461 79z"/>
</g>
</svg>
