<?xml version="1.0" standalone="no"?>
<!DOCTYPE svg PUBLIC "-//W3C//DTD SVG 20010904//EN"
 "http://www.w3.org/TR/2001/REC-SVG-20010904/DTD/svg10.dtd">
<svg version="1.0" xmlns="http://www.w3.org/2000/svg"
 width="539.000000pt" height="693.000000pt" viewBox="0 0 539.000000 693.000000"
 preserveAspectRatio="xMidYMid meet">

<g transform="translate(0.000000,693.000000) scale(0.100000,-0.100000)"
fill="#ED145B" stroke="none">
<path d="M4020 6808 c-55 -12 -75 -33 -203 -215 -53 -76 -105 -149 -116 -163
-11 -14 -62 -84 -113 -157 -138 -196 -362 -507 -369 -513 -3 -3 -24 -32 -45
-65 -22 -33 -101 -143 -175 -245 -74 -102 -154 -213 -177 -246 -23 -34 -48
-68 -56 -76 -8 -8 -30 -39 -49 -70 -20 -30 -76 -110 -127 -179 -164 -225 -210
-289 -210 -298 0 -5 -4 -11 -8 -13 -5 -1 -23 -24 -40 -50 -18 -25 -38 -52 -45
-60 -7 -7 -22 -26 -32 -43 -11 -16 -69 -99 -130 -183 -135 -188 -148 -207
-182 -257 -14 -22 -29 -42 -32 -45 -4 -3 -28 -35 -54 -73 -26 -37 -51 -73 -57
-80 -14 -17 -120 -165 -236 -330 -53 -76 -102 -144 -109 -150 -6 -7 -34 -46
-63 -88 -28 -42 -57 -83 -65 -90 -8 -8 -19 -24 -25 -35 -6 -12 -27 -40 -47
-63 -41 -50 -43 -66 -14 -120 l20 -39 82 -6 c94 -7 754 -36 815 -36 l41 0 -54
-152 c-29 -84 -56 -162 -60 -173 -3 -11 -17 -49 -30 -85 -42 -116 -177 -502
-217 -620 -21 -63 -43 -124 -47 -135 -14 -34 -56 -152 -116 -325 -31 -91 -67
-194 -80 -230 -13 -36 -76 -216 -140 -400 -64 -184 -121 -344 -125 -355 -4
-11 -15 -42 -25 -70 -9 -27 -21 -60 -27 -72 -22 -45 24 -167 69 -184 58 -22
78 -5 214 174 51 67 135 178 188 247 52 69 151 199 220 290 69 91 159 210 201
265 42 55 158 208 258 340 100 132 225 296 278 365 53 69 162 212 243 319 80
107 178 235 216 286 143 187 377 495 661 871 134 177 304 402 326 429 127 161
229 300 234 320 4 16 0 34 -10 50 -9 13 -16 31 -16 39 0 18 -5 19 -165 41 -66
9 -174 25 -240 35 -66 11 -183 29 -260 40 -77 12 -171 26 -208 32 -57 8 -67
13 -62 27 7 17 41 135 55 186 4 17 12 41 18 55 6 14 22 66 37 115 14 50 46
153 70 230 24 77 53 174 65 215 12 41 28 91 36 110 8 19 31 94 53 165 81 275
123 411 136 445 7 19 25 76 40 125 14 50 46 153 70 230 24 77 53 174 65 215
12 41 28 91 35 110 36 99 65 210 64 250 -1 69 -14 140 -30 155 -20 20 -66 25
-119 13z m-190 -634 c-23 -71 -47 -147 -55 -169 -7 -22 -53 -161 -100 -310
-48 -148 -138 -427 -200 -620 -241 -747 -305 -952 -305 -981 0 -38 37 -95 72
-111 27 -13 111 -24 393 -48 94 -9 213 -20 265 -25 52 -5 109 -10 125 -10 l30
-1 -25 -22 c-14 -12 -35 -38 -47 -57 -12 -19 -33 -46 -45 -60 -13 -14 -38 -46
-56 -72 -18 -25 -38 -52 -44 -60 -7 -7 -26 -31 -42 -53 -17 -22 -33 -42 -36
-45 -4 -3 -21 -26 -38 -52 -18 -25 -38 -52 -45 -60 -7 -7 -27 -34 -45 -60 -18
-25 -38 -52 -45 -60 -7 -7 -27 -34 -45 -60 -18 -25 -38 -52 -45 -60 -7 -7 -27
-34 -45 -60 -18 -25 -38 -52 -45 -60 -7 -7 -33 -40 -58 -73 -25 -33 -74 -98
-110 -145 -134 -175 -636 -839 -964 -1275 -120 -159 -223 -294 -229 -300 -7
-5 -22 -26 -34 -46 -12 -19 -32 -47 -44 -60 -13 -14 -35 -43 -50 -64 -14 -22
-37 -52 -50 -67 -13 -15 -31 -39 -41 -53 -41 -57 -31 -15 35 157 39 101 104
271 145 378 40 107 85 222 97 255 31 78 282 732 312 810 12 33 43 114 68 180
50 129 53 152 32 193 -35 69 -59 73 -426 86 -91 3 -203 8 -250 11 -47 3 -132
7 -189 10 -57 2 -105 6 -107 8 -9 9 178 257 188 251 7 -4 8 -2 4 5 -11 18 301
454 317 444 6 -3 7 -1 3 5 -7 12 29 66 179 272 50 69 131 181 180 250 49 69
93 127 97 128 4 2 8 8 8 13 0 7 92 142 133 194 38 50 71 95 122 169 49 71 137
194 271 381 8 11 48 67 89 125 41 58 128 178 193 268 64 90 124 174 132 186 8
12 31 44 51 72 19 27 107 150 194 273 88 123 161 219 163 213 1 -5 -16 -67
-38 -138z"/>
</g>
</svg>
